<svg width="317" height="290" viewBox="0 0 317 290" fill="none" xmlns="http://www.w3.org/2000/svg">
<path d="M69.4915 107.968C69.4747 105.685 71.9119 104.221 73.9193 105.308L102.304 120.669C104.347 121.775 104.413 124.683 102.421 125.879L74.2744 142.792C72.2833 143.988 69.7465 142.565 69.7294 140.242L69.4915 107.968Z" fill="#006C67"/>
<rect x="92.9089" y="148.497" width="22.7273" height="87.7451" rx="11.3636" fill="#006C67"/>
<rect x="92.9089" y="148.497" width="45.4545" height="29.2484" rx="14.6242" fill="#006C67"/>
<rect x="161.091" y="148.497" width="22.7273" height="87.7451" rx="11.3636" fill="#006C67"/>
<rect x="206.545" y="148.497" width="22.7273" height="87.7451" rx="11.3636" fill="#006C67"/>
<rect x="207" y="148" width="49" height="52" rx="24.5" fill="#006C67"/>
<mask id="mask0_40_129" style="mask-type:luminance" maskUnits="userSpaceOnUse" x="211" y="152" width="42" height="43">
<path d="M218.277 153L252.512 160.277L245.235 194.512L211 187.235L218.277 153Z" fill="white"/>
</mask>
<g mask="url(#mask0_40_129)">
<path d="M233.474 160.228C233.344 160.839 233.734 161.441 234.346 161.571C234.958 161.701 235.559 161.31 235.689 160.699L236.16 158.483C236.29 157.871 235.9 157.27 235.288 157.14C234.676 157.01 234.075 157.4 233.945 158.012L233.474 160.228Z" fill="#FFD60A"/>
<path d="M227.352 189.029C227.222 189.641 227.612 190.242 228.224 190.372C228.836 190.502 229.437 190.111 229.567 189.5L230.038 187.284C230.168 186.672 229.778 186.071 229.166 185.941C228.554 185.811 227.953 186.202 227.823 186.813L227.352 189.029Z" fill="#FFD60A"/>
<path d="M245.284 175.474C244.673 175.344 244.071 175.734 243.941 176.346C243.811 176.958 244.202 177.559 244.814 177.689L247.029 178.16C247.641 178.29 248.242 177.9 248.372 177.288C248.502 176.676 248.112 176.075 247.5 175.945L245.284 175.474Z" fill="#FFD60A"/>
<path d="M216.483 169.352C215.871 169.222 215.27 169.612 215.14 170.224C215.01 170.836 215.4 171.437 216.012 171.567L218.228 172.038C218.84 172.168 219.441 171.778 219.571 171.166C219.701 170.554 219.31 169.953 218.699 169.823L216.483 169.352Z" fill="#FFD60A"/>
<path d="M241.726 175.875C240.555 181.381 235.143 184.896 229.637 183.726C224.131 182.555 220.616 177.143 221.786 171.637C222.957 166.131 228.369 162.616 233.875 163.786C239.381 164.957 242.896 170.369 241.726 175.875Z" fill="#FFD60A"/>
<path d="M242.536 165.405C242.012 165.745 241.863 166.447 242.203 166.971C242.544 167.496 243.246 167.645 243.77 167.304L245.67 166.07C246.194 165.73 246.343 165.028 246.003 164.504C245.662 163.979 244.961 163.83 244.436 164.171L242.536 165.405Z" fill="#FFD60A"/>
<path d="M217.842 181.441C217.318 181.782 217.169 182.483 217.509 183.008C217.85 183.532 218.551 183.681 219.076 183.341L220.975 182.107C221.5 181.767 221.649 181.065 221.308 180.541C220.968 180.016 220.266 179.867 219.742 180.208L217.842 181.441Z" fill="#FFD60A"/>
<path d="M240.107 184.536C239.767 184.012 239.065 183.863 238.541 184.203C238.016 184.544 237.867 185.245 238.208 185.77L239.441 187.67C239.782 188.194 240.483 188.343 241.008 188.003C241.532 187.662 241.682 186.96 241.341 186.436L240.107 184.536Z" fill="#FFD60A"/>
<path d="M224.071 159.842C223.73 159.318 223.029 159.169 222.504 159.509C221.98 159.85 221.831 160.551 222.171 161.076L223.405 162.975C223.745 163.5 224.447 163.649 224.971 163.308C225.496 162.968 225.645 162.266 225.304 161.742L224.071 159.842Z" fill="#FFD60A"/>
</g>
<rect x="7" y="115" width="53" height="10" rx="2" fill="#006C67"/>
<rect x="7" y="116" width="36" height="7" rx="1" fill="#006C67"/>
<rect x="16" y="115" width="54" height="20" fill="#006C67"/>
<path d="M18.4482 116.602C20.0458 114.716 22.9542 114.716 24.5518 116.602L34.5393 128.389C36.7416 130.988 34.8942 134.975 31.4875 134.975H11.5125C8.10575 134.975 6.25838 130.988 8.46066 128.389L18.4482 116.602Z" fill="#006C67"/>
<rect x="25" y="96" width="22" height="140" rx="11" fill="#006C67"/>
<rect width="49.675" height="27.9422" rx="13.9711" transform="matrix(0.825284 -0.564718 0.381854 0.924223 22.7437 214.052)" fill="#006C67"/>
<rect x="25" y="92" width="22" height="17" rx="2" fill="#006C67"/>
<path d="M179.902 113.071C175.807 108.976 169.167 108.976 165.071 113.071C161.381 116.761 160.966 123.709 164.098 127.884L172.487 140L180.876 127.884C184.007 123.709 183.592 116.761 179.902 113.071ZM172.589 123.846C171.671 123.846 170.79 123.481 170.141 122.832C169.492 122.183 169.127 121.302 169.127 120.384C169.127 119.466 169.492 118.586 170.141 117.937C170.79 117.287 171.671 116.923 172.589 116.923C173.507 116.923 174.387 117.287 175.036 117.937C175.686 118.586 176.05 119.466 176.05 120.384C176.05 121.302 175.686 122.183 175.036 122.832C174.387 123.481 173.507 123.846 172.589 123.846Z" fill="#006C67"/>
<path d="M42.4772 251.43V256.225H35.9672V276H29.9822V256.225H23.4722V251.43H42.4772ZM59.8659 259.725C60.5659 258.652 61.4409 257.812 62.4909 257.205C63.5409 256.575 64.7076 256.26 65.9909 256.26V262.595H64.3459C62.8526 262.595 61.7326 262.922 60.9859 263.575C60.2393 264.205 59.8659 265.325 59.8659 266.935V276H53.8809V256.47H59.8659V259.725ZM76.0616 266.2C76.0616 264.193 76.435 262.432 77.1816 260.915C77.9516 259.398 78.99 258.232 80.2966 257.415C81.6033 256.598 83.0616 256.19 84.6716 256.19C86.0483 256.19 87.25 256.47 88.2766 257.03C89.3266 257.59 90.1316 258.325 90.6916 259.235V256.47H96.6766V276H90.6916V273.235C90.1083 274.145 89.2916 274.88 88.2416 275.44C87.215 276 86.0133 276.28 84.6366 276.28C83.05 276.28 81.6033 275.872 80.2966 275.055C78.99 274.215 77.9516 273.037 77.1816 271.52C76.435 269.98 76.0616 268.207 76.0616 266.2ZM90.6916 266.235C90.6916 264.742 90.2716 263.563 89.4316 262.7C88.615 261.837 87.6116 261.405 86.4216 261.405C85.2316 261.405 84.2166 261.837 83.3766 262.7C82.56 263.54 82.1516 264.707 82.1516 266.2C82.1516 267.693 82.56 268.883 83.3766 269.77C84.2166 270.633 85.2316 271.065 86.4216 271.065C87.6116 271.065 88.615 270.633 89.4316 269.77C90.2716 268.907 90.6916 267.728 90.6916 266.235ZM118.192 270.4L122.427 256.47H128.797L121.867 276H114.482L107.552 256.47H113.957L118.192 270.4ZM158.126 265.92C158.126 266.48 158.091 267.063 158.021 267.67H144.476C144.569 268.883 144.954 269.817 145.631 270.47C146.331 271.1 147.182 271.415 148.186 271.415C149.679 271.415 150.717 270.785 151.301 269.525H157.671C157.344 270.808 156.749 271.963 155.886 272.99C155.046 274.017 153.984 274.822 152.701 275.405C151.417 275.988 149.982 276.28 148.396 276.28C146.482 276.28 144.779 275.872 143.286 275.055C141.792 274.238 140.626 273.072 139.786 271.555C138.946 270.038 138.526 268.265 138.526 266.235C138.526 264.205 138.934 262.432 139.751 260.915C140.591 259.398 141.757 258.232 143.251 257.415C144.744 256.598 146.459 256.19 148.396 256.19C150.286 256.19 151.966 256.587 153.436 257.38C154.906 258.173 156.049 259.305 156.866 260.775C157.706 262.245 158.126 263.96 158.126 265.92ZM152.001 264.345C152.001 263.318 151.651 262.502 150.951 261.895C150.251 261.288 149.376 260.985 148.326 260.985C147.322 260.985 146.471 261.277 145.771 261.86C145.094 262.443 144.674 263.272 144.511 264.345H152.001ZM175.668 259.725C176.368 258.652 177.243 257.812 178.293 257.205C179.343 256.575 180.51 256.26 181.793 256.26V262.595H180.148C178.655 262.595 177.535 262.922 176.788 263.575C176.041 264.205 175.668 265.325 175.668 266.935V276H169.683V256.47H175.668V259.725ZM200.999 276.28C199.295 276.28 197.779 275.988 196.449 275.405C195.119 274.822 194.069 274.028 193.299 273.025C192.529 271.998 192.097 270.855 192.004 269.595H197.919C197.989 270.272 198.304 270.82 198.864 271.24C199.424 271.66 200.112 271.87 200.929 271.87C201.675 271.87 202.247 271.73 202.644 271.45C203.064 271.147 203.274 270.762 203.274 270.295C203.274 269.735 202.982 269.327 202.399 269.07C201.815 268.79 200.87 268.487 199.564 268.16C198.164 267.833 196.997 267.495 196.064 267.145C195.13 266.772 194.325 266.2 193.649 265.43C192.972 264.637 192.634 263.575 192.634 262.245C192.634 261.125 192.937 260.11 193.544 259.2C194.174 258.267 195.084 257.532 196.274 256.995C197.487 256.458 198.922 256.19 200.579 256.19C203.029 256.19 204.954 256.797 206.354 258.01C207.777 259.223 208.594 260.833 208.804 262.84H203.274C203.18 262.163 202.877 261.627 202.364 261.23C201.874 260.833 201.22 260.635 200.404 260.635C199.704 260.635 199.167 260.775 198.794 261.055C198.42 261.312 198.234 261.673 198.234 262.14C198.234 262.7 198.525 263.12 199.109 263.4C199.715 263.68 200.649 263.96 201.909 264.24C203.355 264.613 204.534 264.987 205.444 265.36C206.354 265.71 207.147 266.293 207.824 267.11C208.524 267.903 208.885 268.977 208.909 270.33C208.909 271.473 208.582 272.5 207.929 273.41C207.299 274.297 206.377 274.997 205.164 275.51C203.974 276.023 202.585 276.28 200.999 276.28ZM239.38 265.92C239.38 266.48 239.345 267.063 239.275 267.67H225.73C225.824 268.883 226.209 269.817 226.885 270.47C227.585 271.1 228.437 271.415 229.44 271.415C230.934 271.415 231.972 270.785 232.555 269.525H238.925C238.599 270.808 238.004 271.963 237.14 272.99C236.3 274.017 235.239 274.822 233.955 275.405C232.672 275.988 231.237 276.28 229.65 276.28C227.737 276.28 226.034 275.872 224.54 275.055C223.047 274.238 221.88 273.072 221.04 271.555C220.2 270.038 219.78 268.265 219.78 266.235C219.78 264.205 220.189 262.432 221.005 260.915C221.845 259.398 223.012 258.232 224.505 257.415C225.999 256.598 227.714 256.19 229.65 256.19C231.54 256.19 233.22 256.587 234.69 257.38C236.16 258.173 237.304 259.305 238.12 260.775C238.96 262.245 239.38 263.96 239.38 265.92ZM233.255 264.345C233.255 263.318 232.905 262.502 232.205 261.895C231.505 261.288 230.63 260.985 229.58 260.985C228.577 260.985 227.725 261.277 227.025 261.86C226.349 262.443 225.929 263.272 225.765 264.345H233.255Z" fill="#F07167"/>
<path d="M246.538 264.638C414.583 134.657 208.651 95.251 181.209 84.5551" stroke="black" stroke-width="3" stroke-miterlimit="16" stroke-dasharray="7 7"/>
<path d="M123.03 30.96L118.535 30.5415C115.705 30.279 113.375 32.3772 113.34 35.2189C113.324 36.5959 113.842 37.9397 114.8 39.0037C115.519 39.8021 116.422 40.3711 117.407 40.6584L116.266 42.6267L111.399 42.1749C108.568 41.9118 106.238 44.0099 106.205 46.8518C106.173 49.4686 108.1 51.8129 110.615 52.3746L103.667 64.3588C101.494 64.114 99.3204 63.8896 97.1466 63.6857C91.1552 63.1293 85.5407 63.3464 81.3351 64.2974C74.228 65.9057 72.6997 69.2873 72.669 71.8407C72.6377 74.3936 74.0819 78.051 81.1352 80.9761C85.3073 82.706 90.9048 83.9658 96.8961 84.5223C99.0697 84.723 101.244 84.9029 103.417 85.062L110.063 98.3107C107.54 98.4034 105.561 100.385 105.529 103.001C105.495 105.843 107.769 108.37 110.599 108.632L115.467 109.085L116.558 111.261C115.568 111.366 114.654 111.766 113.918 112.429C113.434 112.862 113.048 113.395 112.782 113.996C112.517 114.598 112.377 115.256 112.37 115.934C112.336 118.775 114.611 121.302 117.441 121.565L121.935 121.983L129.798 137.66C129.935 137.933 130.141 138.171 130.393 138.346C130.645 138.521 130.934 138.628 131.229 138.656L137.126 139.204C138.116 139.296 138.907 138.454 138.767 137.458L131.625 86.4708C145.499 86.9251 159.145 87.109 168.842 87.1821L173.932 99.489C174.057 99.7918 174.264 100.058 174.527 100.256C174.791 100.455 175.1 100.576 175.417 100.605L182.406 101.255C182.84 101.295 183.258 101.16 183.569 100.881C183.88 100.601 184.058 100.199 184.063 99.7626L184.485 64.6692C184.496 63.773 183.76 62.9548 182.867 62.8717L175.878 62.2221C175.561 62.1926 175.25 62.2561 174.982 62.405C174.714 62.5538 174.502 62.7815 174.37 63.0605L168.996 74.3937C159.319 72.6655 145.699 70.3153 131.845 68.192L132.752 62.8142C132.913 61.8594 132.169 60.8868 131.194 60.7709C130.382 60.6743 129.654 61.2158 129.52 62.0091L128.562 67.6941C121.295 66.6031 114.045 65.5929 107.344 64.7868L133.64 19.4301L136.65 19.7105L130.729 54.8392C130.657 55.2641 130.758 55.7139 131.011 56.0898C131.263 56.4656 131.645 56.7367 132.074 56.8433C132.286 56.8963 132.503 56.9072 132.713 56.8755C132.923 56.8438 133.121 56.7701 133.296 56.6586C133.471 56.5472 133.62 56.4001 133.734 56.2258C133.848 56.0515 133.925 55.8535 133.96 55.643L140.196 18.6444C140.359 17.6766 139.59 16.6891 138.6 16.5979L132.703 16.0495C132.408 16.022 132.117 16.0751 131.862 16.2033C131.606 16.3315 131.395 16.5299 131.252 16.7776L123.03 30.96ZM110.639 105.342C109.627 105.248 108.792 104.321 108.805 103.305C108.817 102.277 109.66 101.518 110.684 101.614L111.77 101.715L113.734 105.631L110.639 105.342ZM117.48 118.275C116.457 118.18 115.634 117.266 115.646 116.238C115.659 115.209 116.501 114.451 117.525 114.546L118.239 114.613L120.203 118.527L117.48 118.275ZM135.255 135.737L132.245 135.457L107.097 85.3181C113.803 85.7577 121.061 86.0961 128.338 86.3579L135.255 135.737ZM176.521 97.4139L172.299 87.2044C175.178 87.2208 178.057 87.2286 180.934 87.2279L180.807 97.813L176.521 97.4139ZM180.974 83.9231C172.055 83.9322 125.058 83.8468 96.935 81.2325C91.3548 80.7143 85.972 79.5112 82.1677 77.9337C79.3114 76.7496 75.9133 74.7837 75.9449 72.1447C75.9765 69.5056 79.4149 68.1758 82.2931 67.5245C86.1266 66.6568 91.5264 66.4575 97.107 66.9761C125.227 69.5903 172.123 78.2336 181.023 79.8985L180.974 83.9231ZM176.903 65.6107L181.189 66.0091L181.062 76.5941C179.3 76.2653 176.317 75.7124 172.445 75.0133L176.903 65.6107ZM118.451 37.5604C117.427 37.4653 116.604 36.5517 116.617 35.5235C116.629 34.4953 117.472 33.7366 118.496 33.8318L121.218 34.085L119.165 37.6269L118.451 37.5604ZM111.314 49.1932C110.291 49.0987 109.468 48.1839 109.48 47.1563C109.492 46.1401 110.347 45.3706 111.359 45.4645L114.454 45.7523L112.401 49.2948L111.314 49.1932ZM146.444 20.724L166.211 22.5617C167.055 22.6395 167.788 22.0356 167.863 21.1972C167.947 20.2606 167.193 19.359 166.251 19.2713L146.483 17.4336C146.268 17.4135 146.054 17.4363 145.855 17.5004C145.655 17.5646 145.473 17.669 145.319 17.8076C145.165 17.9463 145.042 18.1165 144.957 18.3084C144.873 18.5004 144.828 18.7104 144.825 18.9265C144.814 19.8344 145.539 20.6393 146.444 20.724Z" fill="black"/>
<path d="M146.364 27.3603C146.149 27.3401 145.936 27.3628 145.736 27.4269C145.536 27.4911 145.354 27.5954 145.2 27.734C145.046 27.8726 144.923 28.0427 144.839 28.2347C144.754 28.4266 144.709 28.6366 144.707 28.8526C144.704 29.0686 144.744 29.2864 144.824 29.4936C144.903 29.7008 145.022 29.8933 145.172 30.0602C145.322 30.2271 145.501 30.365 145.699 30.466C145.897 30.5671 146.109 30.6294 146.324 30.6493L158.679 31.7984C159.523 31.8762 160.255 31.2725 160.331 30.4339C160.415 29.4974 159.661 28.5956 158.719 28.508L146.364 27.3603ZM143.774 37.0557C143.559 37.0357 143.345 37.0584 143.145 37.1226C142.946 37.1867 142.764 37.2911 142.61 37.4298C142.456 37.5684 142.333 37.7386 142.248 37.9306C142.163 38.1225 142.118 38.3326 142.116 38.5486C142.113 38.7647 142.153 38.9826 142.233 39.1898C142.313 39.3971 142.431 39.5896 142.582 39.7566C142.732 39.9235 142.911 40.0614 143.109 40.1626C143.307 40.2637 143.519 40.326 143.734 40.346L152.383 41.15C153.226 41.2283 153.959 40.624 154.034 39.7848C154.118 38.8489 153.365 37.9473 152.422 37.8596L143.774 37.0557ZM144.018 137.474C144.008 138.382 144.732 139.187 145.637 139.271L165.405 141.108C165.62 141.128 165.834 141.106 166.033 141.042C166.233 140.978 166.415 140.873 166.569 140.735C166.723 140.596 166.846 140.426 166.93 140.234C167.015 140.042 167.06 139.832 167.062 139.616C167.073 138.72 166.336 137.902 165.444 137.818L145.676 135.981C145.242 135.941 144.823 136.075 144.512 136.355C144.201 136.635 144.024 137.037 144.018 137.474ZM144.138 127.548C144.135 127.764 144.175 127.982 144.255 128.189C144.335 128.396 144.453 128.589 144.603 128.756C144.754 128.923 144.933 129.061 145.131 129.162C145.328 129.263 145.541 129.325 145.756 129.345L158.111 130.494C158.955 130.572 159.687 129.968 159.762 129.129C159.846 128.193 159.093 127.292 158.151 127.204L145.796 126.055C145.581 126.035 145.367 126.058 145.168 126.122C144.968 126.186 144.786 126.291 144.632 126.429C144.478 126.568 144.355 126.738 144.27 126.93C144.186 127.122 144.141 127.332 144.138 127.548ZM153.711 118.501C153.721 117.605 152.985 116.787 152.092 116.704L143.444 115.9C143.009 115.86 142.591 115.994 142.28 116.274C141.969 116.554 141.791 116.956 141.786 117.392C141.781 117.829 141.949 118.263 142.252 118.6C142.556 118.937 142.97 119.149 143.404 119.19L152.053 119.994C152.487 120.034 152.906 119.899 153.217 119.619C153.528 119.34 153.705 118.937 153.711 118.501Z" fill="black"/>
</svg>
